<svg xmlns="http://www.w3.org/2000/svg" width="80" height="80" viewBox="0 0 80 80" fill="none">
  <path fill-rule="evenodd" clip-rule="evenodd" d="M11.1351 51.8968H65.841V45.7559H11.1351V51.8968ZM49.0098 61.11H52.0432V63.8246H24.9328V61.11H27.9653C28.4695 61.11 28.8771 60.7031 28.8771 60.1997V53.7174H48.098V60.1997C48.098 60.7031 48.5065 61.11 49.0098 61.11ZM11.1351 43.9353H65.841V13.0396H11.1351V43.9353ZM10.2233 11.219C9.71908 11.219 9.31152 11.6259 9.31152 12.1293V52.8071C9.31152 53.3105 9.71908 53.7174 10.2233 53.7174H27.0536V59.2894H24.021C23.5168 59.2894 23.1093 59.6981 23.1093 60.1997V64.7349C23.1093 65.2364 23.5168 65.6452 24.021 65.6452H52.955C53.4583 65.6452 53.8668 65.2364 53.8668 64.7349V60.1997C53.8668 59.6981 53.4583 59.2894 52.955 59.2894H49.9215V53.7174H66.7527C67.256 53.7174 67.6645 53.3105 67.6645 52.8071V12.1293C67.6645 11.6259 67.256 11.219 66.7527 11.219H10.2233Z" fill="#62E0D9"/>
  <path fill-rule="evenodd" clip-rule="evenodd" d="M37.2399 47.6312C36.7368 47.6312 36.3281 48.0392 36.3281 48.5415C36.3281 49.0438 36.7368 49.4518 37.2399 49.4518C37.743 49.4518 38.1517 49.0438 38.1517 48.5415C38.1517 48.0392 37.743 47.6312 37.2399 47.6312Z" fill="#62E0D9"/>
  <rect x="52.4593" y="29.146" width="19.7082" height="40.6115" rx="1.26244" fill="#1B2330" stroke="#62E0D9" stroke-width="1.26244"/>
  <rect x="52.0557" y="33.2939" width="20.5154" height="0.455152" fill="white" stroke="#62E0D9" stroke-width="0.455152"/>
  <rect x="52.0557" y="62.4236" width="20.5154" height="0.455152" fill="white" stroke="#62E0D9" stroke-width="0.455152"/>
  <ellipse cx="61.8576" cy="65.8372" rx="0.911765" ry="0.910304" stroke="#62E0D9" stroke-width="0.776699"/>
  <path fill-rule="evenodd" clip-rule="evenodd" d="M44.154 23.0529C44.078 23.0529 44.078 23.0529 44.002 23.0529L39.9751 24.6459L35.4162 23.0529L31.1613 24.4942C31.0094 24.5701 30.8574 24.6459 30.8574 24.8735V36.3282C30.8574 36.5558 31.0094 36.7075 31.2373 36.7075C31.3133 36.7075 31.3133 36.7075 31.3893 36.7075L35.4162 35.1144L39.9751 36.7075L44.23 35.2662C44.3819 35.1903 44.5339 35.0386 44.5339 34.8869V23.4322C44.5339 23.2046 44.3819 23.0529 44.154 23.0529ZM39.9751 34.4317L35.4162 32.8956V24.1908L39.9751 25.7269V34.4317Z" fill="#62E0D9"/>
  <path fill-rule="evenodd" clip-rule="evenodd" d="M32.681 23.0529C31.665 23.0529 30.8574 23.7584 30.8574 24.6459C30.8574 25.8293 32.681 27.6044 32.681 27.6044C32.681 27.6044 34.5045 25.8293 34.5045 24.6459C34.5045 23.7584 33.6969 23.0529 32.681 23.0529ZM32.681 25.3287C32.2882 25.3287 31.9796 25.0505 31.9796 24.6965C31.9796 24.3425 32.2882 24.0644 32.681 24.0644C33.0737 24.0644 33.3823 24.3425 33.3823 24.6965C33.3823 25.0505 33.0737 25.3287 32.681 25.3287Z" fill="white"/>
</svg>